<svg id="Layer_1" data-name="Layer 1" xmlns="http://www.w3.org/2000/svg" viewBox="0 0 1510.75 392.31"><defs><style>.cls-1{fill:#db8026;}.cls-2{fill:#32a4d6;}</style></defs><title>edYou-1</title><path class="cls-1" d="M298.14,748v33.93Q266.78,798.35,225,798.35q-59.07,0-95.92-38.57T92.17,658.28q0-66.75,32.41-105.06t84.17-38.3q48.62,0,77.36,33.38t28.76,94.11q0,18.62-2.1,29.55H125.63q3.65,46,30.32,70.31t70.57,24.35Q271.48,766.62,298.14,748ZM281.93,641.32V628.73q0-37.76-20.12-60.19T207.7,546.11q-33.45,0-55.93,24.62t-26.14,70.59Z" transform="translate(-92.17 -408.77)"/><path class="cls-1" d="M554.81,408.77h31.88V795.62H554.81V755.13Q527.09,800,472.74,800q-53.33,0-83.12-40.76t-29.8-99.31q0-64.56,31.89-105.33t82.07-40.76q51.75,0,81,46ZM415.49,738.16q22.22,30.11,56.2,30.1t58.55-26q24.56-26,24.57-86.73,0-30.63-8.11-53.34t-20.91-34.48Q513,556,500.18,550.76a67.16,67.16,0,0,0-25.35-5.2q-35.56,0-58.55,29.82t-23,85.09Q393.28,708.07,415.49,738.16Z" transform="translate(-92.17 -408.77)"/><path class="cls-2" d="M952.09,426.83,830.29,659.92v135.7h-80.5V660.47L629.56,426.83h94.09l21.43,53.62q16.73,41.6,27.71,71.13t14.11,38.3l2.62,8.76q5.22-24.63,46-118.19l23-53.62Z" transform="translate(-92.17 -408.77)"/><path class="cls-2" d="M934.85,610.13q0-84.81,46.78-137.06t124.68-52.26q78.4,0,124.94,52t46.52,137.34q0,84.81-46.78,137.06t-124.68,52.26q-78.42,0-124.94-52T934.85,610.13Zm109.25-82.35q-23,30.38-23,82.35t23,82.35q23,30.36,62.21,30.36t62.21-30.36q23-30.37,23-82.35t-23-82.35q-23-30.36-62.21-30.37T1044.1,527.78Z" transform="translate(-92.17 -408.77)"/><path class="cls-2" d="M1522.42,653.35V426.83h80.5v226q0,72.23-38.68,110.25t-104.55,38q-64.83,0-104-37.76t-39.2-106.69V426.83H1397V656.09q0,68.4,62.73,68.4T1522.42,653.35Z" transform="translate(-92.17 -408.77)"/></svg>